<svg width="46" height="32" viewBox="0 0 46 32" fill="none" xmlns="http://www.w3.org/2000/svg">
<rect x="0.5" y="0.5" width="45" height="31" rx="3.5" fill="white"/>
<path fill-rule="evenodd" clip-rule="evenodd" d="M22.2649 20.162V15.9437H24.5075C25.3682 15.9676 26.2046 15.6449 26.835 15.0594C28.0714 13.9361 28.1442 12.0361 27.0047 10.8172C26.9562 10.7575 26.8956 10.7097 26.835 10.6499C26.2167 10.0524 25.3803 9.72978 24.5075 9.75368H20.9072V20.1739H22.2649V20.162ZM22.2649 14.6651V11.0323H24.5318C25.5379 10.9965 26.3864 11.7851 26.4228 12.777C26.4349 13.2789 26.241 13.7688 25.8773 14.1154C25.5258 14.4739 25.0409 14.6651 24.5318 14.6531H22.2649V14.6651Z" fill="#3C4043"/>
<path fill-rule="evenodd" clip-rule="evenodd" d="M33.7325 13.6021C33.0779 13.0405 32.2173 12.7656 31.3566 12.8015C30.205 12.7417 29.0898 13.2675 28.4352 14.2115L29.6352 14.9524C30.0232 14.343 30.702 13.9845 31.4293 14.0084C31.9142 14.0084 32.387 14.1757 32.7385 14.4983C33.1022 14.7851 33.3083 15.2273 33.2961 15.6814V15.9921C32.69 15.6814 31.9991 15.526 31.3081 15.5499C30.4959 15.5141 29.708 15.7411 29.0413 16.2072C28.4836 16.6254 28.1685 17.2826 28.1927 17.9638C28.1927 18.633 28.4715 19.2783 29.0049 19.7085C29.5625 20.1865 30.2777 20.4254 31.0051 20.4015C31.9142 20.4135 32.7749 19.9475 33.2477 19.1827H33.3083V20.1745H34.6053V15.777C34.6417 14.9644 34.3265 14.1637 33.7325 13.6021ZM30.0595 18.8481C29.7686 18.6449 29.5989 18.3223 29.611 17.9757C29.611 17.5814 29.8292 17.2109 30.1686 16.9959C30.5808 16.721 31.0535 16.5896 31.5506 16.6015C32.1809 16.5657 32.7991 16.7449 33.3204 17.1034C33.3204 17.665 33.0779 18.2028 32.6537 18.5732C32.2536 18.9795 31.696 19.1946 31.1263 19.2066C30.7505 19.2066 30.3747 19.0871 30.0716 18.86L30.0595 18.8481Z" fill="#3C4043"/>
<path d="M41.9878 13.0396L37.4663 23.3044H36.0722L37.7572 19.7195L34.7751 13.0515H36.2541L38.3997 18.166H38.4239L40.5211 13.0515H42L41.9878 13.0396Z" fill="#3C4043"/>
<path d="M16.8586 15.0956C16.8586 14.6773 16.8222 14.2591 16.7495 13.8408H11.0642V16.1352H14.3372C14.216 16.888 13.7675 17.5572 13.125 17.9874V19.4811H15.0767C16.2767 18.3339 16.9192 16.7327 16.8707 15.0956H16.8586Z" fill="#4285F4"/>
<path d="M13.1128 17.9999C11.4035 19.0754 9.13669 18.5854 8.0457 16.9125C7.88811 16.6615 7.75477 16.3867 7.65779 16.1118H5.64551V17.6533C6.67589 19.6729 8.77303 20.9395 11.0641 20.9395C12.543 20.9754 13.9734 20.4615 15.0766 19.4936L13.1249 17.9999H13.1128Z" fill="#34A853"/>
<path d="M7.46383 14.9636C7.46383 14.5693 7.52444 14.1869 7.65779 13.8164V12.2749H5.64551C4.78483 13.9598 4.78483 15.9554 5.64551 17.6404L7.65779 16.0988C7.53656 15.7284 7.46383 15.346 7.46383 14.9517V14.9636Z" fill="#FABB05"/>
<path d="M11.052 11.3548C11.9127 11.3429 12.7491 11.6655 13.3795 12.2511L15.1129 10.5542C14.0219 9.53847 12.5673 8.97683 11.0641 9.00073C8.77303 9.00073 6.67589 10.2674 5.64551 12.2869L7.65779 13.8285C8.14268 12.3706 9.50036 11.3787 11.052 11.3548Z" fill="#E94235"/>
<rect x="0.5" y="0.5" width="45" height="31" rx="3.5" stroke="#EEEDF0"/>
</svg>
