<svg width="41" height="28" viewBox="0 0 41 28" fill="none" xmlns="http://www.w3.org/2000/svg">
<rect x="0.5" y="0.5" width="39.25" height="27" rx="3.5" fill="white"/>
<path d="M7.44388 16.1672C7.44388 16.8006 7.44388 17.4375 7.44388 18.0709C7.04136 18.0813 6.64577 18.0259 6.25366 17.9324C5.5666 17.7732 4.93852 17.4859 4.35903 17.0844C3.8871 16.7556 3.47764 16.3576 3.12717 15.9007C2.72464 15.3746 2.42622 14.7931 2.23537 14.1562C2.07575 13.6232 1.98206 13.0763 2.00288 12.5156C2.63789 12.5156 3.26944 12.5156 3.90445 12.5156C3.90445 12.5225 3.90445 12.526 3.90792 12.5329C3.89404 12.6541 3.90792 12.7752 3.92527 12.8929C3.94956 13.0763 3.9565 13.2632 4.00855 13.4398C4.09877 13.7444 4.21328 14.042 4.36944 14.3224C4.52906 14.5993 4.72338 14.8485 4.93852 15.0804C5.16754 15.3227 5.43473 15.52 5.72275 15.6861C5.8789 15.7761 6.04199 15.8592 6.21202 15.918C6.37511 15.9768 6.5382 16.0322 6.7117 16.0634C6.85398 16.0911 6.99278 16.1188 7.13505 16.1361C7.23568 16.1499 7.33978 16.1257 7.43694 16.1672H7.44388Z" fill="#F58D23"/>
<path d="M3.90817 12.5151C3.27315 12.5151 2.64161 12.5151 2.00659 12.5151C1.99618 12.0028 2.06905 11.5009 2.2148 11.0094C2.63467 9.57995 3.49177 8.48966 4.76526 7.73512C5.39681 7.36131 6.0804 7.13633 6.80564 7.04288C7.02078 7.01519 7.23245 6.99442 7.45107 7.00134C7.45107 7.63821 7.45107 8.27853 7.45107 8.91539C5.47315 8.97424 3.94287 10.5283 3.91164 12.5116L3.90817 12.5151Z" fill="#EC3B38"/>
<path d="M7.46473 14.405C7.46473 14.9865 7.46473 15.5645 7.4682 16.146C7.46126 16.1529 7.45432 16.1564 7.44391 16.1633C7.34675 16.1218 7.24264 16.146 7.14201 16.1322C6.99974 16.1148 6.86094 16.0872 6.71867 16.0595C6.54517 16.0283 6.38208 15.9695 6.21899 15.9141C6.04549 15.8553 5.88586 15.7722 5.72971 15.6822C5.4417 15.5161 5.17451 15.3188 4.94549 15.0765C4.72688 14.8446 4.53255 14.5988 4.3764 14.3185C4.21678 14.0381 4.10574 13.7405 4.01552 13.4359C3.96347 13.2593 3.95306 13.0724 3.93224 12.889C3.91836 12.7713 3.90448 12.6502 3.91489 12.529C4.46315 12.529 5.01142 12.529 5.55968 12.529C5.59091 12.529 5.62214 12.529 5.6499 12.5117C5.6499 12.5256 5.6499 12.5429 5.6499 12.5567C5.67419 13.2143 5.95526 13.7301 6.50006 14.097C6.79154 14.2942 7.11772 14.3808 7.46473 14.3981V14.405Z" fill="#D06A28"/>
<path d="M5.64644 12.5152C5.61868 12.5325 5.58745 12.5325 5.55622 12.5325C5.00796 12.5325 4.45969 12.5325 3.91143 12.5325C3.91143 12.5255 3.91143 12.5221 3.90796 12.5152C3.93919 10.5319 5.47294 8.97779 7.44739 8.91895C7.45433 8.91895 7.46474 8.91895 7.47168 8.91895C7.45086 8.98471 7.46474 9.05393 7.46474 9.12316C7.46474 9.63888 7.46474 10.1546 7.46474 10.6703C7.45086 10.6703 7.43351 10.6703 7.41963 10.6738C6.89565 10.7084 6.45843 10.9161 6.11143 11.3106C5.80953 11.6533 5.66379 12.0583 5.64644 12.5152Z" fill="#C82127"/>
<path d="M11.0909 12.5357C10.8861 12.508 10.6814 12.5461 10.4801 12.5288C10.2823 12.5115 10.0846 12.5565 9.88677 12.5184C9.80001 12.5011 9.70979 12.5357 9.62304 12.5357C9.53282 12.5357 9.44607 12.5219 9.35932 12.4976C9.34891 12.283 9.31768 12.0719 9.2344 11.8711C8.90128 11.0924 8.3079 10.6943 7.46816 10.6701C7.46816 10.1544 7.46816 9.63866 7.46816 9.12294C7.46816 9.05717 7.45428 8.98795 7.4751 8.91873C9.43566 8.8945 11.1013 10.5143 11.0943 12.5149C11.0943 12.5219 11.0943 12.5253 11.0943 12.5322L11.0909 12.5357Z" fill="#114A8C"/>
<path d="M11.091 12.5361C11.1118 12.7853 11.0806 13.0311 11.032 13.2734C10.9869 13.488 10.9071 13.6956 10.8307 13.8998C10.7648 14.0729 10.6919 14.2425 10.5913 14.3948C10.4733 14.5782 10.3588 14.7617 10.2131 14.9244C10.0187 15.1424 9.80359 15.3362 9.5711 15.5058C9.44271 15.5993 9.2935 15.672 9.1547 15.7551C8.99854 15.845 8.82851 15.9108 8.65848 15.9662C8.4711 16.0285 8.27678 16.0804 8.08246 16.1116C7.90896 16.1392 7.73545 16.1462 7.56195 16.16C7.53072 16.16 7.50296 16.1427 7.47173 16.1496C7.47173 15.5681 7.47173 14.9901 7.46826 14.4086C7.49255 14.4086 7.51684 14.4017 7.54113 14.4017C8.20391 14.3844 8.71053 14.0798 9.07488 13.5295C9.27962 13.218 9.3629 12.8684 9.3629 12.498C9.44965 12.5223 9.5364 12.5327 9.62662 12.5361C9.71684 12.5361 9.80706 12.505 9.89034 12.5188C10.0881 12.5569 10.2859 12.5119 10.4837 12.5292C10.685 12.5465 10.8897 12.505 11.0944 12.5361H11.091Z" fill="#0E756D"/>
<path d="M12.9959 12.5156C13.0064 12.7095 12.9959 12.9033 12.9751 13.0971C12.9092 13.7201 12.7565 14.3155 12.4859 14.8796C11.7918 16.3195 10.6918 17.3025 9.17891 17.8113C8.65494 17.9878 8.11709 18.0709 7.56188 18.0743C7.52024 18.0743 7.48207 18.0743 7.44043 18.0709C7.44043 17.4375 7.44043 16.8006 7.44043 16.1672C7.44737 16.1603 7.45431 16.1568 7.46472 16.1499C7.49595 16.1464 7.52371 16.1637 7.55494 16.1603C7.72844 16.1464 7.90194 16.1395 8.07544 16.1118C8.27324 16.0807 8.46409 16.0288 8.65147 15.9665C8.8215 15.9111 8.99153 15.8453 9.14768 15.7553C9.28648 15.6757 9.4357 15.603 9.56409 15.5061C9.79658 15.3365 10.0117 15.1427 10.206 14.9246C10.3518 14.762 10.4663 14.5785 10.5843 14.3951C10.6849 14.2393 10.7578 14.0732 10.8237 13.9001C10.9 13.6924 10.9799 13.4882 11.025 13.2736C11.077 13.0313 11.1048 12.7856 11.084 12.5364C11.084 12.5295 11.084 12.526 11.084 12.5191H12.989L12.9959 12.5156Z" fill="#179C96"/>
<path d="M12.996 12.5151H11.0909C11.0944 10.5179 9.43224 8.89463 7.47168 8.91886C7.46474 8.91886 7.45433 8.91886 7.44739 8.91886C7.44739 8.28199 7.44739 7.64167 7.44739 7.0048C7.92625 6.9875 8.39818 7.0498 8.86316 7.17094C9.88335 7.43399 10.7613 7.95318 11.4865 8.72157C12.0695 9.33766 12.4928 10.0541 12.7461 10.871C12.9127 11.4075 13.0064 11.9543 12.996 12.5151Z" fill="#2670B4"/>
<path d="M15.6227 12.6849V16.9319C15.6227 17.1707 15.5013 17.3437 15.2792 17.4164C15.0398 17.496 14.783 17.4303 14.6511 17.2537C14.5817 17.1603 14.554 17.053 14.554 16.9388C14.554 14.1075 14.554 11.2762 14.554 8.44495C14.554 8.23728 14.6234 8.06768 14.8142 7.9673C15.0016 7.86693 15.1959 7.87039 15.3798 7.97769C15.5533 8.07806 15.6227 8.24074 15.6227 8.43803C15.6227 9.85367 15.6227 11.2693 15.6227 12.6849Z" fill="#414141"/>
<path d="M15.9489 20.2651C15.9489 20.3828 15.9489 20.5004 15.9489 20.6181C15.942 20.9054 15.7407 21.1062 15.4562 21.1062C15.3174 21.1062 15.1786 21.1062 15.0398 21.1062C14.7622 21.1062 14.5574 20.9019 14.554 20.6181C14.554 20.3793 14.554 20.1405 14.554 19.9016C14.554 19.6178 14.7622 19.4102 15.0467 19.4102C15.1786 19.4102 15.3104 19.4102 15.4458 19.4102C15.7338 19.4102 15.942 19.6109 15.9489 19.9016C15.9489 20.0228 15.9489 20.1439 15.9489 20.2651ZM14.8454 20.2616V20.4381C14.8454 20.5004 14.8454 20.5627 14.8454 20.625C14.8454 20.76 14.9183 20.8327 15.0502 20.8362C15.182 20.8396 15.3139 20.8362 15.4492 20.8362C15.5846 20.8362 15.6574 20.7566 15.6609 20.6181C15.6609 20.3793 15.6609 20.1405 15.6609 19.9016C15.6609 19.7701 15.5846 19.694 15.4562 19.694C15.3208 19.694 15.1855 19.694 15.0502 19.694C14.9287 19.694 14.8524 19.7736 14.8489 19.8982C14.8489 20.0193 14.8489 20.1405 14.8489 20.2616H14.8454Z" fill="#434343"/>
<path d="M16.3377 20.331C16.3377 20.1199 16.3377 19.9088 16.3377 19.6976C16.3377 19.5142 16.414 19.4346 16.5945 19.4346C16.8062 19.4346 17.0213 19.4346 17.233 19.4346C17.5314 19.4346 17.7327 19.6388 17.7327 19.9364C17.7327 20.2895 17.7327 20.6425 17.7327 20.999C17.7327 21.0683 17.7153 21.0856 17.6459 21.0856C17.4412 21.0821 17.4412 21.0856 17.4412 20.8779C17.4412 20.5664 17.4412 20.2583 17.4412 19.9468C17.4412 19.7772 17.3718 19.708 17.2052 19.708C17.0386 19.708 16.879 19.708 16.7159 19.708C16.6465 19.708 16.6257 19.7288 16.6257 19.798C16.6257 20.1891 16.6257 20.5802 16.6257 20.9714C16.6257 21.0579 16.6084 21.0925 16.5147 21.0856C16.3342 21.0786 16.3342 21.0856 16.3342 20.8987C16.3342 20.7083 16.3342 20.5214 16.3342 20.331H16.3377Z" fill="#434343"/>
<path d="M18.4231 19.8533C18.4231 20.2375 18.4231 20.6217 18.4231 21.0059C18.4231 21.0648 18.4092 21.0855 18.3468 21.0855C18.1282 21.0855 18.1282 21.0855 18.1282 20.8675C18.1282 20.1475 18.1282 19.4276 18.1282 18.7077C18.1282 18.6246 18.1525 18.6038 18.2323 18.6073C18.4578 18.6108 18.4231 18.5934 18.4231 18.8011C18.4231 19.1507 18.4231 19.5003 18.4231 19.8533Z" fill="#434343"/>
<path d="M19.1207 20.268C19.1207 20.5138 19.1207 20.7595 19.1207 21.0018C19.1207 21.0676 19.0999 21.0849 19.0374 21.0814C18.8292 21.0814 18.8292 21.0814 18.8292 20.8703C18.8292 20.4238 18.8292 19.9773 18.8292 19.5308C18.8292 19.4581 18.8396 19.427 18.9229 19.4304C19.1207 19.4374 19.1207 19.4304 19.1207 19.6346V20.268Z" fill="#434343"/>
<path d="M19.1209 18.8561C19.1209 18.9566 19.0723 19.0051 18.9716 19.0051C18.8049 19.0051 18.8327 19.0154 18.8327 18.8492C18.8327 18.6968 18.8327 18.6968 18.9785 18.6968C19.0758 18.6968 19.1209 18.7487 19.1209 18.8561Z" fill="#434343"/>
<path d="M19.5303 20.3272C19.5303 20.1091 19.5303 19.891 19.5303 19.6764C19.5303 19.5138 19.6066 19.4376 19.7697 19.4342C19.9953 19.4342 20.2208 19.4307 20.4464 19.4342C20.7274 19.4376 20.9252 19.6453 20.9252 19.9291C20.9252 20.2891 20.9252 20.649 20.9252 21.009C20.9252 21.0713 20.9079 21.0852 20.8489 21.0852C20.6337 21.0852 20.6337 21.0852 20.6337 20.8671C20.6337 20.5556 20.6337 20.2475 20.6337 19.936C20.6337 19.7837 20.5574 19.7076 20.4082 19.7076C20.2416 19.7076 20.0751 19.7076 19.9085 19.7076C19.8391 19.7076 19.8218 19.7284 19.8218 19.7976C19.8218 20.1887 19.8218 20.5798 19.8218 20.9709C19.8218 21.0609 19.794 21.0886 19.7072 21.0852C19.5303 21.0782 19.5303 21.0852 19.5303 20.9052V20.3272Z" fill="#434343"/>
<path d="M22.8302 14.0693C23.0627 14.322 23.2813 14.5608 23.4999 14.7996C24.0482 15.3949 24.5999 15.9903 25.1447 16.5856C25.339 16.7967 25.3494 17.0702 25.169 17.2536C24.9747 17.4544 24.6519 17.4786 24.4507 17.2848C24.2217 17.0598 24.01 16.8175 23.7914 16.5821C23.0592 15.7861 22.3305 14.9865 21.6018 14.187C21.5636 14.1454 21.5254 14.1247 21.4665 14.1247C20.6094 14.1247 19.7523 14.1247 18.8952 14.1247C18.8223 14.1247 18.8049 14.1454 18.8049 14.2181C18.8049 15.1042 18.8049 15.9937 18.8049 16.8798C18.8049 17.129 18.6661 17.3021 18.4267 17.3609C18.1769 17.4232 17.9305 17.3263 17.8195 17.1221C17.7778 17.0459 17.7709 16.9629 17.7709 16.8798C17.7709 15.6545 17.7709 14.4293 17.7709 13.2005C17.7709 11.7157 17.7743 10.2343 17.7709 8.74941C17.7709 8.43444 17.9895 8.2233 18.2879 8.2233C19.4989 8.2233 20.7065 8.21292 21.9141 8.23023C22.6567 8.24061 23.368 8.41367 24.0065 8.81863C24.7491 9.29282 25.1933 9.96776 25.3112 10.8469C25.398 11.4803 25.3321 12.0999 25.0302 12.671C24.7144 13.2732 24.2008 13.6401 23.5797 13.8685C23.3437 13.9551 23.0974 14.0174 22.8302 14.0658V14.0693ZM18.8084 11.2069C18.8084 11.8507 18.8084 12.491 18.8084 13.1348C18.8084 13.204 18.8223 13.2282 18.8986 13.2282C19.8737 13.2282 20.8488 13.2317 21.8239 13.2248C22.3305 13.2213 22.8232 13.1382 23.2848 12.9133C23.7185 12.7021 24.0447 12.3906 24.2043 11.9199C24.475 11.1134 24.1592 10.1893 23.4513 9.69432C22.9377 9.33782 22.3617 9.19591 21.751 9.18898C20.8071 9.1786 19.8633 9.18898 18.9195 9.18552C18.8362 9.18552 18.8119 9.20283 18.8119 9.28936C18.8154 9.92968 18.8119 10.5665 18.8119 11.2069H18.8084Z" fill="#414141"/>
<path d="M21.6087 20.3547C21.6087 20.4412 21.6087 20.5243 21.6087 20.6074C21.6087 20.7285 21.6886 20.8012 21.81 20.8047C22.0564 20.8047 22.3027 20.8047 22.5491 20.8047C22.6185 20.8047 22.6463 20.8185 22.6463 20.8947C22.6463 21.085 22.6463 21.085 22.4589 21.085H21.81C21.5255 21.085 21.3207 20.8843 21.3173 20.597C21.3173 20.372 21.3173 20.1436 21.3173 19.9186C21.3173 19.6313 21.4734 19.4617 21.7545 19.4444C21.9384 19.434 22.1258 19.434 22.3097 19.4479C22.5561 19.4652 22.7122 19.6452 22.7157 19.8944C22.7157 20.0294 22.7157 20.1609 22.7157 20.2959C22.7157 20.3616 22.6914 20.3928 22.622 20.3928C22.327 20.3928 22.0286 20.3928 21.7337 20.3928C21.6886 20.3928 21.6539 20.3651 21.6053 20.3616L21.6087 20.3547ZM22.0182 20.1124H22.2299C22.4554 20.1124 22.4624 20.102 22.4311 19.8701C22.4173 19.7663 22.3652 19.7109 22.2611 19.7109C22.105 19.7075 21.9453 19.7075 21.7892 19.7109C21.6886 19.7109 21.6261 19.7663 21.6122 19.8563C21.6018 19.9255 21.6087 19.9982 21.6087 20.0709C21.6087 20.1159 21.6434 20.1159 21.6747 20.1159C21.7892 20.1159 21.9037 20.1159 22.0182 20.1159V20.1124Z" fill="#414141"/>
<path d="M24.6451 20.9917C24.6451 21.2651 24.6416 21.5178 24.6451 21.7739C24.6451 21.8605 24.6277 21.8916 24.534 21.8882C24.3571 21.8812 24.3571 21.8882 24.3571 21.7047C24.3571 21.0056 24.3571 20.3064 24.3571 19.6107C24.3571 19.4549 24.3744 19.4342 24.534 19.4376C24.8012 19.4376 25.0719 19.4238 25.3391 19.4445C25.5507 19.4619 25.7 19.6141 25.7138 19.8253C25.7312 20.1056 25.7312 20.3825 25.7138 20.6629C25.7 20.9017 25.516 21.0748 25.2766 21.0852C25.1343 21.0921 24.9921 21.0852 24.8498 21.0852C24.7769 21.0852 24.7145 21.0506 24.6381 20.9917H24.6451ZM24.6451 20.1887C24.6451 20.3237 24.6451 20.4621 24.6451 20.5971C24.6451 20.7321 24.7179 20.8013 24.8498 20.8013C24.9747 20.8013 25.0962 20.8013 25.2211 20.8013C25.3564 20.8013 25.4328 20.7287 25.4362 20.5902C25.4362 20.3618 25.4362 20.1299 25.4362 19.9014C25.4362 19.7664 25.3772 19.7076 25.2454 19.7041C25.0719 19.7041 24.8984 19.7041 24.7283 19.7041C24.6659 19.7041 24.6485 19.7284 24.6485 19.7872C24.6485 19.9222 24.6485 20.0537 24.6485 20.1887H24.6451Z" fill="#414141"/>
<path d="M27.4001 20.4067C27.4001 20.5867 27.4001 20.7667 27.4001 20.9467C27.4001 21.0505 27.3654 21.0851 27.2613 21.0851C27.0462 21.0851 26.8276 21.0747 26.6124 21.0851C26.2654 21.1094 26.019 20.874 26.0468 20.5071C26.0572 20.3617 26.0989 20.2371 26.2099 20.1368C26.3001 20.0571 26.4008 20.0156 26.5222 20.0156C26.6888 20.0156 26.8553 20.0156 27.0219 20.0156C27.0878 20.0156 27.1156 20.0018 27.1156 19.9291C27.1156 19.7768 27.0496 19.7076 26.897 19.7041C26.7061 19.7041 26.5153 19.7041 26.3244 19.7041C26.2585 19.7041 26.2307 19.6868 26.2307 19.6176C26.2307 19.4307 26.2307 19.4307 26.4112 19.4307C26.5847 19.4307 26.7582 19.4307 26.9282 19.4307C27.2197 19.4307 27.4001 19.6141 27.4001 19.9083C27.4001 20.071 27.4001 20.2371 27.4001 20.3998V20.4067ZM27.1156 20.2648C27.0392 20.3064 26.9698 20.296 26.9004 20.2994C26.779 20.2994 26.6541 20.2994 26.5326 20.2994C26.425 20.2994 26.3626 20.3583 26.3452 20.4656C26.3348 20.5244 26.3348 20.5832 26.3452 20.6421C26.3626 20.7355 26.425 20.8013 26.5222 20.8048C26.6992 20.8082 26.8796 20.8048 27.0566 20.8048C27.1017 20.8048 27.119 20.784 27.119 20.7425C27.119 20.5867 27.119 20.4344 27.119 20.2648H27.1156Z" fill="#414141"/>
<path d="M28.3232 12.6844V16.9313C28.3232 17.2359 28.115 17.4401 27.7993 17.447C27.4835 17.4539 27.2718 17.2601 27.2579 16.952C27.2579 16.914 27.2579 16.8759 27.2579 16.8413C27.2579 14.0481 27.2579 11.2549 27.2579 8.46168C27.2579 8.11556 27.4661 7.89404 27.7923 7.8975C28.1012 7.8975 28.3232 8.11902 28.3232 8.43053V12.6844Z" fill="#404041"/>
<path d="M28.8507 20.9915C28.7535 21.0746 28.6564 21.0884 28.5557 21.0849C28.462 21.0815 28.3718 21.0849 28.2781 21.0849C27.9866 21.0849 27.7784 20.8842 27.7784 20.5934C27.7784 20.2335 27.7784 19.8735 27.7784 19.5135C27.7784 19.4616 27.7889 19.4374 27.8478 19.4374C28.0699 19.4339 28.0699 19.4305 28.0699 19.652C28.0699 19.9635 28.0699 20.2716 28.0699 20.5831C28.0699 20.7388 28.1393 20.808 28.2955 20.808H28.639C28.7848 20.808 28.8507 20.7423 28.8507 20.5934C28.8507 20.2958 28.8507 19.9981 28.8507 19.7005C28.8507 19.6416 28.8507 19.5828 28.8507 19.5239C28.8507 19.5066 28.8472 19.4789 28.8542 19.4686C28.927 19.4097 29.0103 19.4478 29.0901 19.4409C29.1491 19.4339 29.1387 19.4859 29.1387 19.5205C29.1387 19.8666 29.1387 20.2162 29.1387 20.5623V21.3999C29.1387 21.6803 28.934 21.8879 28.6564 21.8879C28.4169 21.8879 28.174 21.8879 27.9346 21.8879C27.8721 21.8879 27.8478 21.8741 27.8513 21.8083C27.8583 21.5661 27.8305 21.6145 28.0456 21.611C28.24 21.611 28.4343 21.611 28.6286 21.611C28.7743 21.611 28.8472 21.5384 28.8507 21.3965C28.8507 21.2684 28.8507 21.1438 28.8507 20.9949V20.9915Z" fill="#434343"/>
<path d="M30.6377 19.7072C30.6759 19.7592 30.6759 19.8111 30.6759 19.863C30.6759 20.2403 30.6759 20.621 30.6759 20.9983C30.6759 21.071 30.6551 21.0848 30.5891 21.0813C30.3879 21.0813 30.3879 21.0813 30.3879 20.8737C30.3879 20.5206 30.3879 20.1676 30.3879 19.8111C30.3879 19.728 30.3636 19.6934 30.2768 19.7003C30.1554 19.7072 30.0374 19.7072 29.916 19.7003C29.8396 19.6968 29.8223 19.728 29.8223 19.7972C29.8223 20.1883 29.8223 20.5795 29.8257 20.9706C29.8257 21.0571 29.8049 21.0813 29.7182 21.0779C29.5412 21.071 29.5377 21.0779 29.5377 20.8979C29.5377 20.486 29.5377 20.0741 29.5377 19.6588C29.5377 19.5099 29.6141 19.4269 29.7633 19.4234C30.1936 19.4234 30.6273 19.42 31.0576 19.4234C31.304 19.4269 31.5052 19.6276 31.5087 19.8768C31.5156 20.2541 31.5087 20.6348 31.5122 21.0121C31.5122 21.0536 31.5018 21.071 31.4566 21.071C31.2242 21.0813 31.2242 21.0848 31.2242 20.8494C31.2242 20.5448 31.2242 20.2403 31.2242 19.9357C31.2242 19.7626 31.1548 19.6934 30.9813 19.6934C30.8667 19.6934 30.7557 19.6934 30.6308 19.6934L30.6377 19.7072Z" fill="#434343"/>
<path d="M32.1924 20.3404C32.1924 20.4443 32.1889 20.5343 32.1924 20.6277C32.1959 20.7316 32.2791 20.8008 32.3936 20.8043C32.64 20.8043 32.8864 20.8043 33.1328 20.8043C33.2091 20.8043 33.2334 20.8285 33.2299 20.9046C33.2265 21.0846 33.2299 21.0846 33.046 21.0846C32.8309 21.0846 32.6157 21.0846 32.3971 21.0846C32.1265 21.0846 31.9252 20.9219 31.9044 20.6485C31.887 20.382 31.887 20.1155 31.9044 19.849C31.9217 19.5997 32.0675 19.4648 32.3173 19.444C32.5116 19.4267 32.7059 19.4232 32.8968 19.444C33.1397 19.4717 33.2889 19.6378 33.2959 19.887C33.2993 20.0186 33.2959 20.1466 33.2959 20.2781C33.2959 20.3543 33.2681 20.3889 33.1848 20.3889C32.8968 20.3889 32.6123 20.3889 32.3242 20.3889C32.2757 20.3889 32.234 20.3751 32.1854 20.3439L32.1924 20.3404ZM32.5984 20.112H32.81C32.9558 20.112 33.0217 20.0393 33.0148 19.8905C33.0078 19.7659 32.9523 19.7105 32.8274 19.7105C32.7198 19.7105 32.6123 19.7105 32.5047 19.7105C32.2167 19.7105 32.1889 19.7417 32.1889 20.0289C32.1889 20.0912 32.2063 20.1189 32.2722 20.1155C32.3798 20.112 32.4873 20.1155 32.5949 20.1155L32.5984 20.112Z" fill="#434343"/>
<path d="M33.8859 8.0293C34.4654 8.04314 35.0344 8.10544 35.5931 8.27158C36.2698 8.47233 36.8666 8.79769 37.2969 9.38609C37.4218 9.55569 37.5155 9.7426 37.6023 9.93643C37.7723 10.3172 37.5259 10.5318 37.2379 10.5941C37.113 10.6217 36.9881 10.6183 36.8666 10.5594C36.7729 10.5145 36.7001 10.4521 36.6619 10.3552C36.471 9.88105 36.1032 9.59723 35.6521 9.40686C35.1559 9.19919 34.6319 9.1265 34.101 9.09535C33.348 9.05382 32.6124 9.14727 31.9184 9.46224C31.5922 9.60761 31.3007 9.8049 31.1098 10.1164C30.6969 10.7775 30.9537 11.5494 31.6859 11.8678C32.0467 12.0235 32.4285 12.0928 32.8102 12.1447C33.5354 12.2416 34.2641 12.2693 34.9928 12.3524C35.607 12.4216 36.2212 12.5081 36.7972 12.7608C37.4947 13.0688 37.9076 13.588 37.984 14.3633C38.0499 15.0279 37.918 15.6405 37.4912 16.1701C37.1754 16.5647 36.766 16.8381 36.3079 17.0388C35.7007 17.3054 35.0622 17.4403 34.4029 17.4923C33.4521 17.5684 32.5221 17.4646 31.6199 17.1358C31.0821 16.9385 30.5928 16.6581 30.2076 16.2185C29.9821 15.9624 29.8225 15.6682 29.7253 15.3394C29.6559 15.0936 29.7322 14.9033 29.9578 14.7856C30.1521 14.6852 30.3534 14.6679 30.5546 14.7648C30.6553 14.8133 30.7281 14.8894 30.7559 14.9967C30.8878 15.4848 31.2105 15.8101 31.6373 16.042C32.0363 16.2601 32.4701 16.3639 32.9108 16.4262C33.5007 16.5093 34.0906 16.5127 34.6805 16.4262C35.2253 16.3466 35.7493 16.2151 36.2143 15.9036C36.6445 15.6163 36.8944 15.2217 36.9013 14.6887C36.9048 14.2214 36.6931 13.8891 36.2906 13.6745C35.9505 13.4911 35.5758 13.4115 35.1975 13.3561C34.566 13.2592 33.9275 13.228 33.2925 13.1692C32.6332 13.1069 31.9739 13.0342 31.3423 12.8162C30.9433 12.6777 30.5789 12.4839 30.2909 12.1655C29.9613 11.802 29.8329 11.359 29.8121 10.8779C29.7739 9.92604 30.225 9.24765 30.9953 8.75269C31.5367 8.40311 32.1404 8.21274 32.772 8.1089C33.1398 8.0466 33.5111 8.02237 33.8859 8.03622V8.0293Z" fill="#414141"/>
<path d="M33.6949 20.3341C33.6949 20.1091 33.6949 19.8876 33.6949 19.6626C33.6949 19.5345 33.7678 19.4411 33.8927 19.4376C34.153 19.4272 34.4167 19.4168 34.6769 19.4445C34.9164 19.4688 35.0829 19.666 35.0829 19.9083C35.0829 20.2752 35.0829 20.6421 35.0829 21.0055C35.0829 21.0748 35.0621 21.0851 34.9997 21.0851C34.7984 21.0851 34.7984 21.0851 34.7984 20.8775C34.7984 20.566 34.7984 20.2579 34.7984 19.9464C34.7984 19.7803 34.7255 19.7076 34.5624 19.7076C34.3993 19.7076 34.2363 19.711 34.0732 19.7076C34.0038 19.7076 33.9829 19.7283 33.9829 19.7976C33.9829 20.1921 33.9829 20.5867 33.9829 20.9813C33.9829 21.0609 33.9621 21.0886 33.8788 21.0886C33.688 21.0817 33.688 21.0886 33.688 20.8948V20.3375L33.6949 20.3341Z" fill="#434343"/>
<path d="M35.777 20.1887C35.777 20.3168 35.777 20.4449 35.777 20.5695C35.777 20.7356 35.8464 20.8014 36.006 20.8014C36.0477 20.8014 36.0928 20.7979 36.1344 20.8014C36.1865 20.8083 36.2663 20.7702 36.2871 20.8256C36.3114 20.8948 36.2975 20.9779 36.2975 21.054C36.2975 21.0852 36.2663 21.0783 36.2455 21.0783C36.1379 21.0783 36.0303 21.0852 35.9228 21.0783C35.6799 21.061 35.489 20.8533 35.489 20.6075C35.489 19.9776 35.489 19.3477 35.489 18.7177C35.489 18.652 35.5064 18.6347 35.5723 18.6381C35.7805 18.6381 35.7805 18.6381 35.7805 18.8492C35.7805 19.0327 35.7805 19.2161 35.7805 19.3996C35.7805 19.4411 35.7805 19.4584 35.8395 19.448C35.9505 19.4307 36.0685 19.4411 36.1795 19.4411C36.2073 19.4411 36.2177 19.455 36.2177 19.4792C36.2177 19.5415 36.2177 19.6038 36.2177 19.6661C36.2177 19.7111 36.1865 19.7146 36.1553 19.7146C36.0616 19.7146 35.9713 19.7215 35.8777 19.7146C35.7944 19.7076 35.7736 19.7422 35.777 19.8184C35.7805 19.943 35.777 20.0676 35.777 20.1922V20.1887Z" fill="#434343"/>
<path d="M37.0783 21.0818C36.929 21.0818 36.7764 21.0818 36.6237 21.0818C36.5786 21.0818 36.5578 21.0714 36.5612 21.0229C36.5682 20.7633 36.5231 20.8083 36.766 20.8083C37.0019 20.8083 37.2414 20.8083 37.4773 20.8083C37.6543 20.8083 37.748 20.6595 37.689 20.4933C37.6751 20.4553 37.6439 20.4553 37.6126 20.4484C37.3142 20.3757 37.0158 20.2995 36.7174 20.2268C36.5508 20.1888 36.5404 20.1784 36.5404 20.0053C36.5404 19.9638 36.5404 19.9257 36.5404 19.8842C36.5404 19.6177 36.6931 19.4481 36.9568 19.4411C37.2448 19.4308 37.5363 19.4411 37.8278 19.4411C37.8764 19.4411 37.8902 19.455 37.8902 19.5069C37.8833 19.7596 37.9249 19.7146 37.689 19.718C37.4634 19.718 37.2379 19.718 37.0123 19.718C36.8631 19.718 36.7868 19.8253 36.8284 19.9672C36.8423 20.0088 36.877 20.0088 36.9082 20.0192C37.2101 20.0918 37.512 20.1645 37.8139 20.2372C37.9388 20.2684 37.9562 20.2857 37.9562 20.4137C37.9562 20.4933 37.9562 20.5764 37.9562 20.656C37.9458 20.926 37.7792 21.0921 37.5085 21.0956C37.3628 21.0956 37.2171 21.0956 37.0748 21.0956L37.0783 21.0818Z" fill="#434343"/>
<rect x="0.5" y="0.5" width="39.25" height="27" rx="3.5" stroke="#EEEDF0"/>
</svg>
