<svg width="41" height="28" viewBox="0 0 41 28" fill="none" xmlns="http://www.w3.org/2000/svg">
<rect x="0.75" y="0.5" width="39.25" height="27" rx="5.5" fill="white"/>
<path fill-rule="evenodd" clip-rule="evenodd" d="M20.2921 19.6342C18.9107 20.7986 17.1189 21.5015 15.1608 21.5015C10.7918 21.5015 7.25 18.0019 7.25 13.6848C7.25 9.3678 10.7918 5.86816 15.1608 5.86816C17.1189 5.86816 18.9107 6.57108 20.2921 7.73546C21.6735 6.57108 23.4654 5.86816 25.4235 5.86816C29.7925 5.86816 33.3343 9.3678 33.3343 13.6848C33.3343 18.0019 29.7925 21.5015 25.4235 21.5015C23.4654 21.5015 21.6735 20.7986 20.2921 19.6342Z" fill="#ED0006"/>
<path fill-rule="evenodd" clip-rule="evenodd" d="M20.2921 19.6342C21.993 18.2005 23.0716 16.0671 23.0716 13.6848C23.0716 11.3025 21.993 9.16918 20.2921 7.73546C21.6735 6.57108 23.4654 5.86816 25.4234 5.86816C29.7925 5.86816 33.3342 9.3678 33.3342 13.6848C33.3342 18.0019 29.7925 21.5015 25.4234 21.5015C23.4654 21.5015 21.6735 20.7986 20.2921 19.6342Z" fill="#F9A000"/>
<path fill-rule="evenodd" clip-rule="evenodd" d="M20.2921 19.634C21.993 18.2003 23.0716 16.067 23.0716 13.6847C23.0716 11.3024 21.993 9.16907 20.2921 7.73535C18.5912 9.16907 17.5127 11.3024 17.5127 13.6847C17.5127 16.067 18.5912 18.2003 20.2921 19.634Z" fill="#FF5E00"/>
<rect x="0.75" y="0.5" width="39.25" height="27" rx="5.5" stroke="#EEEDF0"/>
</svg>
