<svg width="41" height="28" viewBox="0 0 41 28" fill="none" xmlns="http://www.w3.org/2000/svg">
<rect x="1.25" y="0.5" width="39.25" height="27" rx="3.5" fill="white"/>
<path d="M17.5732 21.875L17.8849 20.015L17.1906 19.9999H13.875L16.1792 6.27505C16.1863 6.23362 16.2096 6.19499 16.2435 6.16755C16.2775 6.14012 16.321 6.125 16.3663 6.125H21.9568C23.8128 6.125 25.0936 6.48782 25.7623 7.20393C26.0758 7.53987 26.2755 7.89093 26.372 8.27726C26.4734 8.68263 26.4751 9.16694 26.3762 9.75763L26.3691 9.80075V10.1792L26.6825 10.3461C26.9466 10.4777 27.1564 10.6283 27.3173 10.8007C27.5855 11.088 27.7589 11.453 27.8322 11.8858C27.9079 12.3309 27.8829 12.8606 27.7589 13.4603C27.6159 14.1501 27.3846 14.7508 27.0723 15.2424C26.7851 15.6954 26.4191 16.0711 25.9846 16.3622C25.5698 16.6388 25.0769 16.8488 24.5196 16.9831C23.9797 17.1153 23.364 17.1819 22.6887 17.1819H22.2536C21.9425 17.1819 21.6403 17.2872 21.4031 17.4759C21.1653 17.6685 21.008 17.9316 20.9597 18.2194L20.9269 18.3868L20.3762 21.665L20.3512 21.7854C20.3446 21.8235 20.3333 21.8425 20.3166 21.8554C20.3017 21.8672 20.2803 21.875 20.2594 21.875H17.5732Z" fill="#253B80"/>
<path d="M26.3916 9.625C26.3752 9.72937 26.3564 9.83607 26.3353 9.94569C25.6095 13.6488 23.1266 14.9281 19.9555 14.9281H18.3409C17.9531 14.9281 17.6263 15.2079 17.5658 15.5881L16.7392 20.7985L16.5051 22.2754C16.4658 22.5249 16.6594 22.75 16.9128 22.75H19.7765C20.1156 22.75 20.4037 22.5051 20.4571 22.1728L20.4853 22.0282L21.0245 18.6277L21.0591 18.4411C21.1119 18.1076 21.4005 17.8627 21.7396 17.8627H22.1679C24.9424 17.8627 27.1144 16.7432 27.7492 13.5036C28.0144 12.1503 27.8771 11.0203 27.1754 10.2256C26.9631 9.98592 26.6996 9.78709 26.3916 9.625Z" fill="#179BD7"/>
<path d="M26.2473 9.02782C26.1374 8.99341 26.024 8.96212 25.9076 8.93396C25.7907 8.90643 25.6709 8.88203 25.5476 8.86075C25.116 8.78567 24.6431 8.75 24.1365 8.75H19.8601C19.7548 8.75 19.6547 8.77565 19.5651 8.82196C19.368 8.92395 19.2214 9.12481 19.1859 9.37072L18.2762 15.5692L18.25 15.75C18.3099 15.342 18.6339 15.0417 19.0184 15.0417H20.6191C23.763 15.0417 26.2246 13.6682 26.9442 9.69485C26.9657 9.57721 26.9837 9.4627 27 9.3507C26.8179 9.24683 26.6208 9.15797 26.4084 9.08226C26.3561 9.06349 26.302 9.04534 26.2473 9.02782Z" fill="#222D65"/>
<path d="M18.8055 9.76954C18.8424 9.53884 18.9945 9.3504 19.1992 9.2553C19.2928 9.21186 19.3961 9.18779 19.5054 9.18779H23.945C24.471 9.18779 24.9619 9.22125 25.41 9.2917C25.538 9.31166 25.6624 9.33455 25.7838 9.36038C25.9045 9.3868 26.0223 9.41615 26.1364 9.44843C26.1932 9.46487 26.2493 9.4819 26.3043 9.49892C26.5247 9.56995 26.7294 9.65389 26.9184 9.75075C27.1407 8.373 26.9166 7.43492 26.1503 6.58549C25.3055 5.65035 23.7808 5.25 21.8297 5.25H16.1654C15.7669 5.25 15.4269 5.53177 15.3653 5.9151L13.006 20.4529C12.9595 20.7405 13.1878 21 13.4861 21H16.9831L17.8611 15.5847L18.8055 9.76954Z" fill="#253B80"/>
<rect x="1.25" y="0.5" width="39.25" height="27" rx="3.5" stroke="#EEEDF0"/>
</svg>
