<svg width="41" height="28" viewBox="0 0 41 28" fill="none" xmlns="http://www.w3.org/2000/svg">
<rect x="1.25" y="0.5" width="39.25" height="27" rx="5.5" fill="#191C1F"/>
<rect x="1.25" y="0.5" width="39.25" height="27" rx="5.5" stroke="#F2F4F7"/>
<path d="M28.5534 10H27.2578V17.0122H28.5534V10Z" fill="white"/>
<path d="M37.7505 11.864V12.9522H36.4109V15.3996C36.4109 15.6037 36.4559 15.7809 36.5253 15.8511C36.6009 15.9277 36.7316 15.9666 36.9135 15.9666H37.7505V17.0547H36.6067C36.103 17.0547 35.7245 16.9334 35.4814 16.6941C35.2384 16.455 35.1152 16.0928 35.1152 15.6176V10.4453H36.4109V11.864H37.7505Z" fill="white"/>
<path d="M18.4576 15.6486L19.7972 11.8672H21.1582L19.2244 17.0134H17.6907L15.7568 11.8672H17.118L18.4576 15.6486Z" fill="white"/>
<path d="M32.852 15.2876C32.9523 15.0543 33.0032 14.7709 33.0032 14.4451V11.8672H34.2989V17.0133H33.1617L33.0457 16.4134C32.8924 16.5819 32.697 16.7323 32.4635 16.8609C32.2078 17.0014 31.8725 17.0727 31.4674 17.0727C31.1863 17.0727 30.9168 17.0339 30.6661 16.9574C30.4141 16.8805 30.1883 16.7498 29.995 16.5688C29.8015 16.3878 29.6459 16.1437 29.5327 15.8438C29.4196 15.5448 29.3623 15.1676 29.3623 14.7229V11.8672H30.6579V14.5841C30.6579 15.052 30.7505 15.4085 30.9331 15.6438C31.1139 15.8765 31.3935 15.9946 31.7639 15.9946C32.0228 15.9946 32.2462 15.9345 32.428 15.8158C32.6098 15.6973 32.7524 15.5195 32.852 15.2876Z" fill="white"/>
<path fill-rule="evenodd" clip-rule="evenodd" d="M25.2777 12.1355C24.8694 11.9159 24.3845 11.8047 23.8368 11.8047C23.2959 11.8047 22.8127 11.9159 22.4011 12.1354C21.9889 12.3556 21.6652 12.6664 21.4385 13.0592C21.2123 13.4518 21.0977 13.9171 21.0977 14.442C21.0977 14.9606 21.2123 15.4226 21.4385 15.8152C21.6649 16.2079 21.9889 16.5187 22.4011 16.7388C22.8127 16.9582 23.2959 17.0695 23.8368 17.0695C24.3845 17.0695 24.8693 16.9582 25.2777 16.7386C25.6864 16.5187 26.0085 16.2079 26.235 15.8151C26.4613 15.4224 26.5761 14.9604 26.5761 14.442C26.5761 13.9172 26.4613 13.452 26.235 13.0592C26.0084 12.6662 25.6863 12.3554 25.2777 12.1355ZM24.5931 15.8125C24.3844 15.9444 24.13 16.0112 23.8368 16.0112C23.5504 16.0112 23.2976 15.9444 23.0855 15.8125C22.8729 15.6804 22.7061 15.494 22.5898 15.2584C22.473 15.0226 22.4137 14.748 22.4137 14.442C22.4137 14.1298 22.473 13.8536 22.5898 13.621C22.7061 13.3886 22.873 13.2021 23.0857 13.0667C23.2979 12.9315 23.5507 12.8629 23.8368 12.8629C24.1298 12.8629 24.3842 12.9315 24.5929 13.0666C24.8023 13.202 24.9675 13.3886 25.084 13.621C25.2008 13.8543 25.2601 14.1305 25.2601 14.442C25.2601 14.7473 25.2008 15.022 25.084 15.2584C24.9676 15.494 24.8023 15.6805 24.5931 15.8125Z" fill="white"/>
<path d="M4.75 11.7344H6.09645V17.016H4.75V11.7344Z" fill="white"/>
<path d="M10.3189 12.0325C10.3189 10.9118 9.37808 10 8.22163 10H4.75V11.1279H8.05656C8.57992 11.1279 9.01344 11.5268 9.02301 12.017C9.0278 12.2625 8.93284 12.4941 8.75563 12.6693C8.57834 12.8445 8.34147 12.9411 8.08865 12.9411H6.80058C6.75484 12.9411 6.71762 12.9772 6.71762 13.0215V14.024C6.71762 14.041 6.72305 14.0574 6.73327 14.071L8.91868 17.0122H10.5185L8.32796 14.063C9.43109 14.0093 10.3189 13.1101 10.3189 12.0325Z" fill="white"/>
<path fill-rule="evenodd" clip-rule="evenodd" d="M13.0906 11.8047C13.6109 11.8047 14.0715 11.9058 14.4594 12.1056C14.8472 12.3052 15.1556 12.5926 15.376 12.9595C15.5956 13.326 15.7105 13.7646 15.7174 14.2631C15.7174 14.3369 15.7156 14.41 15.7124 14.483C15.7085 14.5581 15.6998 14.6328 15.6862 14.7052L15.6818 14.7283H11.79V14.7697C11.8034 15.0339 11.8658 15.2668 11.9756 15.4603C12.0849 15.6532 12.2428 15.8046 12.4446 15.9104C12.6475 16.0169 12.8821 16.0709 13.1419 16.0709C13.4483 16.0709 13.7129 15.9991 13.9282 15.8575C14.1288 15.7259 14.2665 15.5398 14.3374 15.3042L14.3435 15.284H15.632L15.6249 15.3176C15.5592 15.6335 15.4248 15.9238 15.2256 16.1805C15.0159 16.4505 14.7355 16.6686 14.392 16.8288C14.0484 16.9886 13.6484 17.0696 13.203 17.0696C12.6415 17.0696 12.1482 16.96 11.737 16.7438C11.325 16.5276 11.0027 16.2184 10.7793 15.8249C10.5563 15.4323 10.4434 14.9704 10.4434 14.4521C10.4434 13.9203 10.5546 13.4517 10.7741 13.0595C10.9939 12.6664 11.3073 12.3556 11.7058 12.1356C12.1036 11.9159 12.5695 11.8047 13.0906 11.8047ZM14.3968 13.8385C14.3463 13.5122 14.2086 13.2554 13.9873 13.0747C13.7585 12.8881 13.4602 12.7934 13.1007 12.7934C12.8881 12.7934 12.6876 12.8376 12.5051 12.9246C12.3227 13.0113 12.1697 13.1353 12.0504 13.293C11.9365 13.4434 11.864 13.6268 11.8348 13.8385H14.3968Z" fill="white"/>
</svg>
